<svg width="0" height="0" class="hidden">
  <symbol xmlns="http://www.w3.org/2000/svg" viewBox="0 0 18 12" id="icon-arrow">
    <path fill="none" stroke="#5267DF" stroke-width="3" d="M1 1l8 8 8-8"></path>
  </symbol>
  <symbol xmlns="http://www.w3.org/2000/svg" viewBox="0 0 16 15" id="icon-close">
    <path fill="#FFF" fill-rule="evenodd" d="M8 5.379L13.303.075l2.122 2.122L10.12 7.5l5.304 5.303-2.122 2.122L8 9.62l-5.303 5.304-2.122-2.122L5.88 7.5.575 2.197 2.697.075 8 5.38z"></path>
  </symbol>
  <symbol xmlns="http://www.w3.org/2000/svg" viewBox="0 0 20 20" id="icon-error">
    <g fill="none" fill-rule="evenodd">
      <circle cx="10" cy="10" r="10" fill="#FA5959"></circle>
      <g fill="#FFF" transform="translate(9 5)">
        <rect width="2" height="7" rx="1"></rect>
        <rect width="2" height="2" y="8" rx="1"></rect>
      </g>
    </g>
  </symbol>
  <symbol xmlns="http://www.w3.org/2000/svg" viewBox="0 0 24 24" id="icon-facebook">
    <path fill="#FFF" fill-rule="evenodd" d="M22.675 0H1.325C.593 0 0 .593 0 1.325v21.351C0 23.407.593 24 1.325 24H12.82v-9.294H9.692v-3.622h3.128V8.413c0-3.1 1.893-4.788 4.659-4.788 1.325 0 2.463.099 2.795.143v3.24l-1.918.001c-1.504 0-1.795.715-1.795 1.763v2.313h3.587l-.467 3.622h-3.12V24h6.116c.73 0 1.323-.593 1.323-1.325V1.325C24 .593 23.407 0 22.675 0z"></path>
  </symbol>
  <symbol xmlns="http://www.w3.org/2000/svg" viewBox="0 0 18 15" id="icon-hamburger">
    <path fill="#242A45" fill-rule="evenodd" d="M0 0h18v3H0V0zm0 6h18v3H0V6zm0 6h18v3H0v-3z"></path>
  </symbol>
</svg>